<svg width="375" height="534" viewBox="0 0 375 534" fill="none" xmlns="http://www.w3.org/2000/svg">
<path fill-rule="evenodd" clip-rule="evenodd" d="M565.837 30.6856C602.66 45.6236 639.484 60.5621 713.135 60.5621C786.773 60.5621 823.604 45.6267 860.433 30.6921C894.543 16.8599 928.652 3.02841 992 1.06459L992 156.835L992 564.621V643.545C990.023 642.748 988.052 641.948 986.081 641.148C949.235 626.197 912.398 611.25 838.722 611.25C765.082 611.25 728.264 626.189 691.447 641.127C654.633 656.064 617.82 671 544.197 671C470.563 671 433.744 656.064 396.924 641.127C360.102 626.189 323.278 611.25 249.627 611.25C175.989 611.25 139.158 626.186 102.329 641.12C68.2188 654.953 34.1103 668.784 -29.2382 670.748L-29.2383 564.621V496.46L-29.2383 156.835L-29.2383 28.2671C-27.2616 29.0646 -25.2905 29.8643 -23.3196 30.6641C13.5271 45.6152 50.3632 60.5621 124.04 60.5621C197.679 60.5621 234.498 45.6236 271.315 30.6856C308.129 15.7488 344.942 0.8125 418.565 0.8125C492.199 0.8125 529.018 15.7488 565.837 30.6856Z" fill="#CAF0FF"/>
</svg>
